<svg id="visual" viewBox="0 0 960 540" width="960" height="540" xmlns="http://www.w3.org/2000/svg" xmlns:xlink="http://www.w3.org/1999/xlink" version="1.1"><path d="M0 395L11.5 403.8C23 412.7 46 430.3 68.8 420.3C91.7 410.3 114.3 372.7 137.2 351C160 329.3 183 323.7 205.8 329.3C228.7 335 251.3 352 274.2 372.8C297 393.7 320 418.3 342.8 410.8C365.7 403.3 388.3 363.7 411.2 358.3C434 353 457 382 480 379.7C503 377.3 526 343.7 548.8 349.2C571.7 354.7 594.3 399.3 617.2 414.8C640 430.3 663 416.7 685.8 408.8C708.7 401 731.3 399 754.2 399.8C777 400.7 800 404.3 822.8 396.3C845.7 388.3 868.3 368.7 891.2 363.7C914 358.7 937 368.3 948.5 373.2L960 378L960 541L948.5 541C937 541 914 541 891.2 541C868.3 541 845.7 541 822.8 541C800 541 777 541 754.2 541C731.3 541 708.7 541 685.8 541C663 541 640 541 617.2 541C594.3 541 571.7 541 548.8 541C526 541 503 541 480 541C457 541 434 541 411.2 541C388.3 541 365.7 541 342.8 541C320 541 297 541 274.2 541C251.3 541 228.7 541 205.8 541C183 541 160 541 137.2 541C114.3 541 91.7 541 68.8 541C46 541 23 541 11.5 541L0 541Z" fill="#f0c53a" stroke-linecap="round" stroke-linejoin="miter"></path></svg>